<svg id="globe" xmlns="http://www.w3.org/2000/svg" width="16" height="16" viewBox="0 0 16 16">
  <path id="Path_411" data-name="Path 411" d="M1.018,7.5h2.49A13.706,13.706,0,0,1,3.82,5H1.674a6.958,6.958,0,0,0-.656,2.5ZM2.255,4H4.09a9.266,9.266,0,0,1,.64-1.539,6.7,6.7,0,0,1,.6-.933A7.024,7.024,0,0,0,2.255,4ZM8,0a8,8,0,1,0,8,8A8,8,0,0,0,8,0ZM7.5,1.077A3.518,3.518,0,0,0,5.613,2.932,7.962,7.962,0,0,0,5.145,4H7.5ZM7.5,5H4.847a12.5,12.5,0,0,0-.338,2.5H7.5Zm1,2.5V5h2.653a12.444,12.444,0,0,1,.338,2.5Zm-1,1H4.51A12.5,12.5,0,0,0,4.847,11H7.5Zm1,2.5V8.5h2.99a12.5,12.5,0,0,1-.337,2.5Zm-1,1H5.145a7.937,7.937,0,0,0,.468,1.068A3.526,3.526,0,0,0,7.5,14.923ZM5.327,14.472a6.7,6.7,0,0,1-.6-.933A9.267,9.267,0,0,1,4.09,12H2.255a7.024,7.024,0,0,0,3.072,2.472ZM1.674,11H3.82a13.651,13.651,0,0,1-.312-2.5H1.018A6.935,6.935,0,0,0,1.674,11Zm9,3.472A7.024,7.024,0,0,0,13.745,12H11.911a9.278,9.278,0,0,1-.641,1.539,6.688,6.688,0,0,1-.6.933ZM10.855,12H8.5v2.923a3.518,3.518,0,0,0,1.887-1.855A7.98,7.98,0,0,0,10.855,12Zm1.325-1h2.146a6.926,6.926,0,0,0,.656-2.5h-2.49A13.65,13.65,0,0,1,12.18,11Zm.312-3.5h2.49A6.959,6.959,0,0,0,14.326,5H12.18a13.745,13.745,0,0,1,.312,2.5ZM11.91,4a9.277,9.277,0,0,0-.64-1.539,6.692,6.692,0,0,0-.6-.933A7.024,7.024,0,0,1,13.745,4H11.911ZM10.855,4H8.5V1.077a3.518,3.518,0,0,1,1.887,1.855A7.962,7.962,0,0,1,10.855,4Z" fill="#a39161" fill-rule="evenodd"/>
</svg>
